<svg id="6d90af61-b407-4b98-ab1d-ce326041ca8c" data-name="Layer 1" xmlns="http://www.w3.org/2000/svg" viewBox="0 0 149.78 149.77"><defs><style>.\36 0e5efe1-f51e-48f4-b7d1-30239faadb44{fill:#fff;}</style></defs><title>getset-white</title><path class="60e5efe1-f51e-48f4-b7d1-30239faadb44" d="M0,0V149.77H149.78V0H0ZM143,143H6.76V6.76H143V143Z"/><path class="60e5efe1-f51e-48f4-b7d1-30239faadb44" d="M87.78,63l11.83,0.8a14,14,0,0,1-5.36,8.12Q89.94,75.3,82.6,75.3q-8.18,0-13-4.72a15.67,15.67,0,0,1-4.87-11.72,17,17,0,0,1,4.8-12.24q4.8-5,12.82-5,7.76,0,12.55,4.71t4.78,12.82c0,0.44,0,1.06,0,1.84H78A8.37,8.37,0,0,0,79,65.52q1,1.48,3.88,1.48Q87,67,87.78,63Zm-0.86-8.4q0-3.27-1.32-4.4a4.65,4.65,0,0,0-3.19-1.13q-4.5,0-4.5,5.53h9Z"/><path class="60e5efe1-f51e-48f4-b7d1-30239faadb44" d="M124.57,42.29v8.24h-6.46V62.45q0,2.45.92,2.91a4.22,4.22,0,0,0,1.91.46,14.8,14.8,0,0,0,3.63-.54v9a38.41,38.41,0,0,1-7.38.73q-5.85,0-8.6-2.51t-2.75-8l0-3.79V50.53H101V42.29h4.84l0.19-10.53,12.05-.19V42.29h6.46Z"/><path class="60e5efe1-f51e-48f4-b7d1-30239faadb44" d="M30,112l10-1.37q0.86,3.5,6.81,3.5,4.93,0,4.93-1.91a1.42,1.42,0,0,0-1-1.29,19.15,19.15,0,0,0-4.51-.94q-9.86-1.37-12.31-4.28a9.81,9.81,0,0,1-2.45-6.47,9.54,9.54,0,0,1,4.13-8q4.13-3.07,10.84-3.07,11.77,0,15,8.49l-9.61,1.81q-1.33-2.86-5.63-2.86a6.45,6.45,0,0,0-3,.55,1.53,1.53,0,0,0-1,1.09q0,1.59,3.05,1.94A64.43,64.43,0,0,1,56.09,101a10.29,10.29,0,0,1,4.83,3.38,9,9,0,0,1,2,5.92,9.79,9.79,0,0,1-4.44,8.43q-4.43,3.12-12.23,3.12Q33.12,121.82,30,112Z"/><path class="60e5efe1-f51e-48f4-b7d1-30239faadb44" d="M88.75,109.55l11.83,0.79a14,14,0,0,1-5.36,8.13q-4.31,3.36-11.65,3.35-8.17,0-13-4.72a15.68,15.68,0,0,1-4.86-11.72,17,17,0,0,1,4.8-12.24q4.8-5,12.82-5,7.76,0,12.54,4.71t4.79,12.81c0,0.45,0,1.06,0,1.84H78.92A8.41,8.41,0,0,0,80,112q1,1.48,3.88,1.48Q88,113.52,88.75,109.55Zm-0.86-8.4q0-3.27-1.32-4.4a4.65,4.65,0,0,0-3.18-1.13q-4.5,0-4.5,5.53h9Z"/><path class="60e5efe1-f51e-48f4-b7d1-30239faadb44" d="M125.54,88.81V97h-6.46V109q0,2.45.92,2.91a4.21,4.21,0,0,0,1.91.46,14.87,14.87,0,0,0,3.63-.54v9a38.64,38.64,0,0,1-7.38.73q-5.85,0-8.61-2.51t-2.75-8l0-3.78V97H102V88.81h4.84L107,78.28l12.05-.19V88.81h6.46Z"/><path class="60e5efe1-f51e-48f4-b7d1-30239faadb44" d="M24.23,28V63.73H40.1L24.63,98.33H40.1L61.69,61V28H24.23ZM50.11,53.07H35.31V38.27h14.8v14.8Z"/></svg>